<?xml version="1.0" encoding="UTF-8"?>
<svg xmlns="http://www.w3.org/2000/svg" viewBox="0 0 2267.717 2267.717">
  <g id="a" data-name="Layer_1">
    <line x1="-28.346" y1="1133.858" x2="2296.063" y2="1133.858" fill="#fff" stroke="#000" stroke-linecap="round" stroke-linejoin="round" stroke-width="5"/>
    <line x1="1133.858" y1="2296.063" x2="1133.858" y2="-28.346" fill="#fff" stroke="#000" stroke-linecap="round" stroke-linejoin="round" stroke-width="5"/>
  </g>
  <g id="b" data-name="Layer_2">
    <g>
      <path d="M499.368,2240.27h3.635v-12.13h3.456v27.356h-3.456v-12.202h-3.635v12.202h-3.456v-27.356h3.456v12.13Z" fill="#fff"/>
      <path d="M519.059,2253.336l-2.16,2.16h-6.011l-2.16-2.16v-23.037l2.16-2.159h6.011l2.16,2.159v23.037ZM512.904,2231.091l-.72.721v20.013l.72.721h1.979l.72-.721v-20.013l-.72-.721h-1.979Z" fill="#fff"/>
      <path d="M527.051,2231.02v24.477h-3.456v-24.477h-3.276v-2.88h10.007v2.88h-3.275Z" fill="#fff"/>
      <path d="M537.239,2228.14h7.811l2.16,2.159v12.095l-2.16,2.16h-4.355v10.942h-3.456v-27.356ZM543.755,2240.955v-9.215l-.72-.72h-2.339v10.654h2.339l.72-.72Z" fill="#fff"/>
      <path d="M549.047,2255.497v-27.356h3.456v24.405h4.571v2.951h-8.027Z" fill="#fff"/>
      <path d="M561.898,2248.442l-.684,7.055h-3.456l3.276-27.356h4.967l3.348,27.356h-3.6l-.684-7.055h-3.167ZM563.482,2231.704l-1.332,13.786h2.664l-1.332-13.786Z" fill="#fff"/>
      <path d="M574.93,2231.02v24.477h-3.456v-24.477h-3.276v-2.88h10.007v2.88h-3.275Z" fill="#fff"/>
      <path d="M579.718,2228.14h8.531v2.951h-5.075v9.071h4.427v2.951h-4.427v9.432h5.147v2.951h-8.603v-27.356Z" fill="#fff"/>
      <path d="M605.781,2253.336l-2.16,2.16h-5.651l-2.16-2.16v-23.037l2.16-2.159h5.651l2.16,2.159v23.037ZM599.986,2231.091l-.72.721v20.013l.72.721h1.62l.72-.721v-20.013l-.72-.721h-1.62Z" fill="#fff"/>
    </g>
    <g>
      <path d="M1664.519,2240.27h3.635v-12.13h3.455v27.356h-3.455v-12.202h-3.635v12.202h-3.456v-27.356h3.456v12.13Z" fill="#fff"/>
      <path d="M1684.209,2253.336l-2.159,2.16h-6.012l-2.16-2.16v-23.037l2.16-2.159h6.012l2.159,2.159v23.037ZM1678.054,2231.091l-.72.721v20.013l.72.721h1.979l.72-.721v-20.013l-.72-.721h-1.979Z" fill="#fff"/>
      <path d="M1692.201,2231.02v24.477h-3.456v-24.477h-3.275v-2.88h10.007v2.88h-3.275Z" fill="#fff"/>
      <path d="M1702.39,2228.14h7.811l2.16,2.159v12.095l-2.16,2.16h-4.355v10.942h-3.455v-27.356ZM1708.905,2240.955v-9.215l-.72-.72h-2.34v10.654h2.34l.72-.72Z" fill="#fff"/>
      <path d="M1714.197,2255.497v-27.356h3.456v24.405h4.571v2.951h-8.027Z" fill="#fff"/>
      <path d="M1727.048,2248.442l-.684,7.055h-3.456l3.276-27.356h4.967l3.348,27.356h-3.6l-.684-7.055h-3.168ZM1728.632,2231.704l-1.332,13.786h2.664l-1.332-13.786Z" fill="#fff"/>
      <path d="M1740.08,2231.02v24.477h-3.456v-24.477h-3.275v-2.88h10.007v2.88h-3.275Z" fill="#fff"/>
      <path d="M1744.868,2228.14h8.531v2.951h-5.076v9.071h4.428v2.951h-4.428v9.432h5.148v2.951h-8.604v-27.356Z" fill="#fff"/>
      <path d="M1762.724,2231.091h-2.412v-2.951h5.867v27.356h-3.455v-24.405Z" fill="#fff"/>
    </g>
    <g>
      <path d="M1662.718,26.266h3.636v-12.13h3.455v27.356h-3.455v-12.202h-3.636v12.202h-3.455V14.136h3.455v12.13Z" fill="#fff"/>
      <path d="M1682.409,39.332l-2.16,2.16h-6.011l-2.16-2.16v-23.037l2.16-2.159h6.011l2.16,2.159v23.037ZM1676.254,17.087l-.72.721v20.013l.72.721h1.979l.72-.721v-20.013l-.72-.721h-1.979Z" fill="#fff"/>
      <path d="M1690.402,17.016v24.477h-3.456v-24.477h-3.275v-2.88h10.007v2.88h-3.275Z" fill="#fff"/>
      <path d="M1700.589,14.136h7.812l2.159,2.159v12.095l-2.159,2.16h-4.355v10.942h-3.456V14.136ZM1707.105,26.951v-9.215l-.721-.72h-2.339v10.654h2.339l.721-.72Z" fill="#fff"/>
      <path d="M1712.397,41.493V14.136h3.456v24.405h4.571v2.951h-8.027Z" fill="#fff"/>
      <path d="M1725.248,34.438l-.685,7.055h-3.455l3.275-27.356h4.968l3.348,27.356h-3.6l-.685-7.055h-3.167ZM1726.832,17.7l-1.332,13.786h2.663l-1.331-13.786Z" fill="#fff"/>
      <path d="M1738.28,17.016v24.477h-3.456v-24.477h-3.275v-2.88h10.007v2.88h-3.275Z" fill="#fff"/>
      <path d="M1743.069,14.136h8.53v2.951h-5.075v9.071h4.428v2.951h-4.428v9.432h5.147v2.951h-8.603V14.136Z" fill="#fff"/>
      <path d="M1758.944,28.535l2.16-2.16h3.168l.72-.72v-7.847l-.72-.721h-1.08l-.72.721v3.312h-3.456v-4.824l2.16-2.159h5.111l2.159,2.159v10.943l-2.159,2.159h-3.168l-.72.72v8.424h5.903v2.951h-9.359v-12.958Z" fill="#fff"/>
    </g>
    <g>
      <path d="M498.181,26.266h3.635v-12.13h3.456v27.356h-3.456v-12.202h-3.635v12.202h-3.456V14.136h3.456v12.13Z" fill="#fff"/>
      <path d="M517.872,39.332l-2.16,2.16h-6.011l-2.16-2.16v-23.037l2.16-2.159h6.011l2.16,2.159v23.037ZM511.717,17.087l-.72.721v20.013l.72.721h1.979l.72-.721v-20.013l-.72-.721h-1.979Z" fill="#fff"/>
      <path d="M525.864,17.016v24.477h-3.456v-24.477h-3.276v-2.88h10.007v2.88h-3.275Z" fill="#fff"/>
      <path d="M536.052,14.136h7.811l2.16,2.159v12.095l-2.16,2.16h-4.355v10.942h-3.456V14.136ZM542.567,26.951v-9.215l-.72-.72h-2.339v10.654h2.339l.72-.72Z" fill="#fff"/>
      <path d="M547.86,41.493V14.136h3.456v24.405h4.571v2.951h-8.027Z" fill="#fff"/>
      <path d="M560.711,34.438l-.684,7.055h-3.456l3.276-27.356h4.967l3.348,27.356h-3.6l-.684-7.055h-3.167ZM562.295,17.7l-1.332,13.786h2.664l-1.332-13.786Z" fill="#fff"/>
      <path d="M573.743,17.016v24.477h-3.456v-24.477h-3.276v-2.88h10.007v2.88h-3.275Z" fill="#fff"/>
      <path d="M578.531,14.136h8.531v2.951h-5.075v9.071h4.427v2.951h-4.427v9.432h5.147v2.951h-8.603V14.136Z" fill="#fff"/>
      <path d="M604.342,25.439l-2.16,2.159,2.16,2.196v9.538l-2.16,2.16h-5.651l-2.16-2.16v-5.398h3.456v3.959l.72.72h1.62l.72-.72v-8.062l-.72-.721h-3.06v-3.023h3.06l.72-.72v-7.631l-.72-.72h-1.656l-.72.72v3.959h-3.456v-5.399l2.16-2.159h5.688l2.16,2.159v9.144Z" fill="#fff"/>
    </g>
    <path d="M21.488,2242.984c-.036-.414-.098-.798-.158-1.162-.15-.901-.358-1.531-.551-2.115h0c-.028-.073-.303-.786-.499-1.187-.126-.258-.345-.647-.729-1.113-.014.308-.059.676-.166,1.082-.056.213-.182.635-.439,1.116-.043.081-.177.325-.39.619-.169.233-.335.425-.479.577-.455-.601-.706-1.166-.848-1.561-.126-.352-.378-1.165-.312-2.105.037-.534.16-.853.273-1.072.101-.195.211-.341.292-.438-.292.133-.696.344-1.13.672-.438.329-.963.726-1.345,1.423-.42.769-.479,1.563-.526,2.202-.014.196-.018.359-.019.468-.109-.167-.271-.399-.487-.663-.043-.052-.1-.123-.183-.215-.209-.232-.404-.44-.791-.818-.161-.157-.338-.329-.601-.577-.232-.218-.522-.486-.861-.788.138.285.313.696.448,1.208.22.831.221,1.494.224,2.353.002.623-.043,1.035-.087,1.35-.024.174-.051.322-.078.453l-5.189,2.996v11.153s9.659,5.577,9.659,5.577l9.659-5.577v-11.153s-4.686-2.706-4.686-2.706ZM11.689,2244.026c-.011.058-.023.118-.033.183-.144.866-.252,1.515.019,2.222.369.96,1.442,1.52,1.442,1.52,0,0-.026-.101-.052-.415-.015-.171-.076-.998-.088-1.189-.016-.257.011-.659.014-.711.029-.468.116-.684.147-.746.065-.13.146-.224.146-.224,0,0-.023.207.01.424.039.182.119.454.298.744.202.326.441.534.599.65.064.052.122.094.18.132.106.069.246.162.443.229.084.028.156.044.205.054-.221-.262-.288-.509-.312-.638-.041-.223-.011-.397.039-.682.059-.342.157-.588.181-.647.103-.257.214-.435.36-.669.078-.125.098-.138.172-.26.073-.119.173-.285.259-.507.048-.124.126-.326.153-.598.015-.155.02-.398-.055-.689.242.071.385.183.469.27.157.161.312.394.458.76h0c.246.619.413,1.039.477,1.592.015.131.039.399.108.786.03.165.058.3.078.39.037-.351.158-1.003.624-1.623.145-.193.406-.533.882-.785.359-.19.693-.251.906-.273-.094.084-.219.207-.346.37-.103.133-.32.418-.434.814-.155.538-.039,1.001,0,1.148.139.53.37.612.611,1.267.115.312.167.579.194.747.275-.21.673-.567,1.004-1.111.382-.627.485-1.187.575-1.73.041-.248.067-.485.082-.713l3.206,1.851-8.195,4.731-8.195-4.731,3.369-1.945ZM7.832,2246.816l8.195,4.731v9.463l-8.195-4.731v-9.463ZM25.198,2256.279l-8.195,4.731v-9.463l8.195-4.731v9.463Z" fill="#fff"/>
  </g>
</svg>